<?xml version="1.0" standalone="no"?><!DOCTYPE svg PUBLIC "-//W3C//DTD SVG 1.1//EN" "http://www.w3.org/Graphics/SVG/1.1/DTD/svg11.dtd"><svg t="1512352967479" class="icon" style="" viewBox="0 0 1024 1024" version="1.1" xmlns="http://www.w3.org/2000/svg" p-id="2547" xmlns:xlink="http://www.w3.org/1999/xlink" width="200" height="200"><defs><style type="text/css"></style></defs><path d="M821.382737 707.395368l-48.693895-53.867789 93.749895-98.304h-487.208421v-75.156211h477.642105l-82.809263-77.958736 45.918316-56.589474 182.649263 171.816421-181.248 190.059789z m-158.504421-527.898947c0-41.418105-32.390737-75.156211-70.898527-75.15621H166.507789c-38.480842 0-70.898526 33.711158-70.898526 75.15621v676.271158c0 41.418105 32.417684 75.156211 70.898526 75.15621h425.472c38.507789 0 70.898526-33.738105 70.898527-75.15621v-75.129263h70.925473v75.129263c0 82.997895-64.754526 150.285474-141.824 150.285474H166.507789c-77.123368 0-141.797053-67.287579-141.797052-150.285474V179.496421c0-83.051789 64.673684-150.285474 141.797052-150.285474h425.472c77.042526 0 141.824 67.260632 141.824 150.285474V254.652632h-70.925473V179.496421z" p-id="2548" fill="#999999"></path></svg>